<?xml version="1.0" encoding="utf-8"?>
<!-- Generator: Adobe Illustrator 15.1.0, SVG Export Plug-In . SVG Version: 6.00 Build 0)  -->
<!DOCTYPE svg PUBLIC "-//W3C//DTD SVG 1.1//EN" "http://www.w3.org/Graphics/SVG/1.1/DTD/svg11.dtd">
<svg version="1.1" id="zulu-shirts.de" xmlns="http://www.w3.org/2000/svg" xmlns:xlink="http://www.w3.org/1999/xlink" x="0px"
	 y="0px" width="779px" height="599px" viewBox="0 0 779 599" enable-background="new 0 0 779 599" xml:space="preserve">
<g id="Ebene_26">
	<path d="M334.775,400.685c-6.892-0.777-14.262-1.834-21.403-3.223c-3.294-1.258-6.583-2.49-9.836-3.688
		c-11.108-4.098-20.851-11.23-32.052-14.939c-3.54-1.17-12.13,3.988-6.224,5.943c10.087,3.338,18.766,10.037,28.743,13.717
		c0.771,0.283,1.569,0.586,2.346,0.875c-0.308,0.869,0.156,1.666,1.949,2.111c1.011,0.25,2.022,0.459,3.028,0.691
		c3.571,2.816,8.393,2.83,12.297,5.061c0.917,0.527,2.226,0.475,3.508,0.227c4.89,2.027,9.732,4.121,14.361,6.357
		c2.424,1.17,10.082-0.023,9.227-3.998C339.94,406.207,339.118,401.176,334.775,400.685z M517.503,377.695
		c-1.652-1.947-4.916-1.109-6.907-0.396c0.005-0.018,0.005-0.039,0.01-0.057c-1.484,0.396-4.121,1.656-4.398,3.496
		c-0.725,0.246-1.428,0.523-2.049,0.826c-2.657,1.295-5.4,2.285-7.688,4.193c-1.846-0.039-4.306,0.5-6.016,1.488
		c-2.033,0.25-4.933,0.941-6.094,2.148c-0.423-0.063-0.845-0.104-1.235-0.102c-4.42,0.025-8.669,1.34-12.666,3.154
		c-0.818,0.371-1.491,0.99-2.013,1.689c-3.931,0.32-8.097,2.068-11.683,2.387c-1.37,0.121-3.026,0.646-4.283,1.527
		c-2.686-0.555-5.614-0.605-7.663,0.107c-2.055,0.715-3.937,1.59-4.982,3.623c-1.007,1.963,0.808,3.729,0.901,5.674
		c0.28,5.654,7.688,3.932,11.023,2.383c5.917-2.75,12.35-4.301,18.344-6.898c0.673-0.291,1.424-0.816,2.013-1.459
		c1.876,0.391,3.814,0.072,5.624-0.697c3.003-1.273,6.287-2.211,8.943-4.26c0.564-0.438,0.966-1.01,1.273-1.619
		c0.03-0.016,0.062-0.021,0.093-0.033c0.595-0.264,1.501-0.807,2.2-1.475c2.007-0.385,4.029-1.199,5.38-1.879
		c2.382-1.193,4.998-2.057,7.224-3.527c2.473-1.637,4.771-2.92,7.466-4.232c0.146-0.07,0.308-0.164,0.475-0.273
		c0.525-0.055,1.031-0.139,1.418-0.242c0.911-0.242,1.793-0.574,2.68-0.893C516.475,381.779,519.051,379.523,517.503,377.695z"/>
	<path fill="#D8B78B" d="M516.757,281.767c1.022,7.371,2.48,32.368,10.947,36.44c27.417,13.182,37.029-48.739,40.074-63.652
		c3.032-14.84-1.169-49.76-23.688-41.365c-0.74,0.273-1.271,0.615-1.657,0.993c-9.819-4.237-21.101-3.147-24.688,8.864
		C512.431,240.851,514.244,263.752,516.757,281.767z"/>
	<path fill="#D8B78B" d="M260.959,223.047c-3.581-12.013-14.867-13.102-24.692-8.864c-0.375-0.377-0.907-0.719-1.647-0.993
		c-22.518-8.396-26.725,26.524-23.696,41.365c3.044,14.913,12.667,76.833,40.085,63.652c8.465-4.072,9.92-29.069,10.946-36.44
		C264.458,263.752,266.271,240.851,260.959,223.047z"/>
	<path fill="#7F512E" stroke="#000000" stroke-width="4.252" stroke-miterlimit="10" d="M541.935,249.232
		c0-81.541-68.14-147.642-152.197-147.642c-84.05,0-152.188,59.898-152.188,147.642c0,163.848,68.139,147.639,152.188,147.639
		C473.795,396.871,541.935,413.08,541.935,249.232z"/>
	<path fill="#D8B78B" stroke="#000000" stroke-width="4.252" stroke-miterlimit="10" d="M264.395,300.088
		c0,75.785,56.358,137.223,125.879,137.223c69.51,0,125.868-61.438,125.868-137.223c0-75.79-0.667-171.61-126.416-141.772
		C247.296,128.477,264.395,224.298,264.395,300.088z"/>
	<path fill="#FFFFFF" stroke="#000000" stroke-width="4.252" stroke-miterlimit="10" d="M364.267,259.198
		c0-25.159-15.939-45.557-35.611-45.557c-19.662,0-35.607,20.397-35.607,45.557c0,25.16,15.945,45.558,35.607,45.558
		C348.328,304.756,364.267,284.357,364.267,259.198z"/>
	<path fill="#FFFFFF" stroke="#000000" stroke-width="4.252" stroke-miterlimit="10" d="M487.034,259.198
		c0-25.159-15.939-45.557-35.612-45.557c-19.662,0-35.602,20.397-35.602,45.557c0,25.16,15.939,45.558,35.602,45.558
		C471.095,304.756,487.034,284.357,487.034,259.198z"/>
	<path d="M316.625,275.006c0,12.401,6.432,22.453,14.366,22.453c7.938,0,14.371-10.052,14.371-22.453
		c0-12.398-6.433-22.451-14.371-22.451C323.056,252.556,316.625,262.608,316.625,275.006z"/>
	<path d="M434.054,275.006c0,12.401,6.433,22.453,14.366,22.453c7.944,0,14.376-10.052,14.376-22.453
		c0-12.398-6.432-22.451-14.376-22.451C440.485,252.556,434.054,262.608,434.054,275.006z"/>
	<path fill="#D8B78B" stroke="#000000" stroke-width="4.252" stroke-miterlimit="10" d="M545.718,378.172
		c0,51.686-69.838,93.584-155.976,93.584c-86.14,0-155.972-41.898-155.972-93.584c0-51.682,69.833-93.582,155.972-93.582
		C475.88,284.59,545.718,326.49,545.718,378.172z"/>
	<path fill="none" stroke="#000000" stroke-width="4.252" stroke-miterlimit="10" d="M234.458,362.16
		c155.33,93.584,310.666,0,310.666,0"/>
	<path fill="none" stroke="#000000" stroke-width="4.252" stroke-miterlimit="10" d="M235.601,362.16
		c154.542,133.023,308.705,0,308.705,0"/>
	<g>
		<path fill="#CC0033" d="M398.134,495.285c-1.297,0-2.609-0.008-3.936-0.014c-1.363-0.01-2.74-0.018-4.128-0.018l-5.596,0.01
			c-13.894,0-25.16-0.648-33.198-8.828c-9.228-9.389-13.525-27.947-13.525-58.41c0-8.912,0.4-16.99,1.189-24.055
			c14.612,2.166,29.581,3.264,44.531,3.264c18.82,0,38.174-1.725,57.569-5.125c0.896,7.465,1.35,16.17,1.35,25.916
			c0,30.17-4.063,48.645-12.787,58.143c-7.743,8.43-18.832,9.117-31.463,9.117C398.137,495.285,398.137,495.285,398.134,495.285z"/>
		<path d="M439.179,404.586c0.722,6.871,1.086,14.73,1.086,23.439c0,29.199-4,47.748-12.227,56.705
			c-7.174,7.809-17.349,8.43-29.904,8.43c-1.293,0-2.604-0.008-3.927-0.016c-1.366-0.008-2.747-0.016-4.138-0.016
			c-0.955,0-1.904,0.002-2.846,0.004c-0.923,0.002-1.839,0.006-2.75,0.006c-13.389,0-24.223-0.604-31.683-8.193
			c-8.69-8.842-12.915-27.461-12.915-56.92c0-7.928,0.318-15.182,0.948-21.633c14.017,1.969,28.341,2.967,42.646,2.967
			C401.692,409.359,420.411,407.754,439.179,404.586 M442.864,399.623c-18.256,3.32-38.226,5.484-59.393,5.484
			c-14.938,0-30.468-1.088-46.382-3.568c-0.949,7.467-1.465,16.189-1.465,26.484c0,67.25,21.41,69.365,48.85,69.365
			c1.842,0,3.705-0.01,5.596-0.01c2.737,0,5.435,0.031,8.063,0.031c26.25,0,46.382-3.021,46.382-69.387
			C444.517,416.851,443.938,407.492,442.864,399.623L442.864,399.623z"/>
	</g>
	<path d="M242.418,315.369c-0.021,0.002-2.513,0.578-6.026-1.576c-5.468-3.346-13.042-12.877-18.14-39.478
		c-2.992-11.104-4.545-20.097-5.098-27.376c-0.109-1.458-0.177-2.844-0.214-4.166c-0.328-13.224,3.039-19.92,6.74-23.297
		c5.9-5.382,14.533-4.144,18.536-3.161c1.335,0.325,2.158,0.625,2.189,0.639l1.871-5.001c-0.646-0.24-15.862-5.799-26.162,3.552
		c-8.976,8.15-10.863,24.713-5.682,49.17c0.735,3.479,1.616,7.121,2.638,10.921c4.348,22.688,11.259,37.075,20.532,42.75
		c3.237,1.984,6.052,2.426,7.929,2.426c1.324,0,2.184-0.223,2.377-0.279L242.418,315.369z"/>
	<path d="M562.889,215.504c-10.289-9.349-25.511-3.792-26.156-3.552l1.866,5.001c0.124-0.052,12.874-4.647,20.725,2.522
		c0.376,0.336,0.741,0.709,1.104,1.115c5.036,5.7,8.747,18.539,1.93,47.427c-0.479,2.021-1.013,4.116-1.596,6.297l0,0
		c-0.021,0.068-0.031,0.125-0.052,0.193c-4.984,26.054-12.438,35.652-17.816,39.113c-3.648,2.35-6.256,1.76-6.309,1.746l-1.49,5.125
		c0.198,0.057,1.054,0.279,2.389,0.279c1.864,0,4.69-0.445,7.923-2.426c9.289-5.688,16.199-20.1,20.506-42.644
		C574.148,245.06,573.137,224.807,562.889,215.504z"/>
	<path d="M291.104,213.284c0.141,3,2.857-2.398,4.717-4.115c3.159-2.911,7.553-5.272,11.974-7.373
		c11.155-5.296,24.645-7.3,37.275-7.563c2.602-0.056,3.153-16.313-2.585-16.19c-27.908,0.576-58.564,12.445-57.657,31.833
		c0.125,2.729,0.25,7.811,3.618,9.633C290.962,220.876,291.125,213.628,291.104,213.284L291.104,213.284z"/>
	<path d="M490.11,213.284c-0.142,3-2.856-2.398-4.719-4.115c-3.157-2.911-7.554-5.272-11.974-7.373
		c-11.155-5.296-24.645-7.3-37.274-7.563c-2.603-0.056-3.153-16.313,2.585-16.19c27.908,0.576,58.563,12.445,57.656,31.833
		c-0.125,2.729-0.25,7.811-3.618,9.633C490.251,220.876,490.089,213.628,490.11,213.284L490.11,213.284z"/>
	
		<line fill="none" stroke="#000000" stroke-width="2.8347" stroke-linecap="round" stroke-miterlimit="10" x1="389.742" y1="406.07" x2="389.742" y2="443.402"/>
</g>
</svg>
